# xmcd
#
# Track frame offsets: 
#        150
#        41304
#        79547
#        138899
#        162022
#        189938
#        216076
#        254906
#
# Disc length: 3672 seconds
#
# Revision: 1
# Processed by: cddbd v1.5.2PL0 Copyright (c) Steve Scherf et al.
# Submitted via: ExactAudioCopyFreeDBPlugin 1.0
#
DISCID=610e5608
DTITLE=VAP - 28 Legend
DYEAR=1900
DGENRE=New Age
TTITLE0=Virtual Connection - The three khights
TTITLE1=Ecplipse - The fairies wood
TTITLE2=The Sonic Theatre - After the war
TTITLE3=Next Logic - A new story
TTITLE4=Afterlife - Moonlight
TTITLE5=Explora - Village
TTITLE6=Sunrise - Song for Avalon
TTITLE7=J.L.A. - Jungle
EXTD=
EXTT0=
EXTT1=
EXTT2=
EXTT3=
EXTT4=
EXTT5=
EXTT6=
EXTT7=
PLAYORDER=
